<svg width="6" height="27" viewBox="0 0 6 27" fill="none" xmlns="http://www.w3.org/2000/svg">
<path fill-rule="evenodd" clip-rule="evenodd" d="M0.589175 27.0049V8.29698L4.24652 6.59078H5.27472V25.2987L1.61738 27.0049H0.589175ZM1.03447 4.85237C0.52502 4.3363 0.26178 3.70054 0.26178 2.98133C0.26178 2.25541 0.522182 1.61312 1.03447 1.09418C1.54868 0.573273 2.19475 0.303223 2.93195 0.303223C3.66914 0.303223 4.31521 0.573273 4.82943 1.09418C5.34171 1.61312 5.60212 2.25541 5.60212 2.98133C5.60212 3.70054 5.33888 4.3363 4.82943 4.85237C4.31521 5.37327 3.66914 5.64332 2.93195 5.64332C2.19475 5.64332 1.54868 5.37327 1.03447 4.85237ZM1.29497 8.73687L4.40523 7.28589H4.56892V24.8588L1.45867 26.3098H1.29497V8.73687ZM0.967575 2.98133C0.967575 3.51873 1.15856 3.98089 1.54052 4.36782C1.92248 4.75475 2.38629 4.94821 2.93195 4.94821C3.47761 4.94821 3.94142 4.75475 4.32338 4.36782C4.70534 3.98089 4.89632 3.51873 4.89632 2.98133C4.89632 2.43319 4.70534 1.96565 4.32338 1.57872C3.94142 1.1918 3.47761 0.998333 2.93195 0.998333C2.38629 0.998333 1.92248 1.1918 1.54052 1.57872C1.15856 1.96565 0.967575 2.43319 0.967575 2.98133Z" fill="black"/>
</svg>
