<svg width="42" height="57" viewBox="0 0 42 57" fill="none" xmlns="http://www.w3.org/2000/svg">
<g clip-path="url(#clip0_1_163)">
<path d="M17.3515 19.5714L19.0945 16.0779C18.9644 16.013 6.32149 9.71426 2.34131 6.74023L2.67029e-05 9.85712C4.26636 13.0519 16.8182 19.2987 17.3515 19.5714Z" fill="#D3D3D3"/>
<path d="M10.1349 51.7821L15.6173 53.2305L14.6192 56.997L9.13676 55.5486L10.1349 51.7821Z" fill="#D3D3D3"/>
<path d="M16.2589 0L19.4196 13.2857C19.4196 13.2857 19.4457 13.3766 19.4587 13.4156C23.2567 10.4545 28.9539 5.32468 30.2286 1.18182L33.9616 2.32468C32.0756 8.49351 23.712 15.1429 20.5513 17.4935C25.8582 36.4545 32.6349 46.6234 40.231 46.961L40.7253 46.987L41.0375 48.3247H41.0765L42 52.3117L38.2019 53.1948L37.5646 50.4545C31.5033 48.8961 26.2354 43.2468 21.852 33.5714L21.4618 32.6234L21.0715 31.6753L20.2781 29.7273L19.8879 28.7922L19.4977 27.8442C17.9238 23.4416 16.5321 18.8701 15.3744 14.2597L12.2267 0.961039L16.2719 0H16.2589Z" fill="white"/>
<path d="M19.5107 27.8311L19.9009 28.7791L20.2781 29.7272L21.0846 31.6752L21.4618 32.6233L21.852 33.5713L14.633 56.857L10.8089 55.4934L19.5107 27.8311Z" fill="#D3D3D3"/>
</g>
<defs>
<clipPath id="clip0_1_163">
<rect width="42" height="57" fill="white" transform="matrix(-1 0 0 1 42 0)"/>
</clipPath>
</defs>
</svg>
