<svg width="46" height="59" viewBox="0 0 46 59" fill="none" xmlns="http://www.w3.org/2000/svg">
<g clip-path="url(#clip0_1_6)">
<path d="M38.4807 1.58904L34.629 0L30.3902 10.5998L14.762 9.49683L12.4583 18.8441L16.2548 19.7975L17.766 13.6844L28.8237 14.4696C26.4279 20.0966 24.032 24.9385 21.6362 29.0326H21.6546L24.5665 32.192L30.5561 41.5954C30.6666 41.7636 30.7035 41.988 30.6482 42.1936L26.7965 56.1023L30.7772 59L33.0625 55.7845L31.2932 54.4946L34.4078 43.2592C34.758 41.9693 34.5553 40.5672 33.8365 39.4455L26.778 28.3596C28.5473 25.032 30.2612 21.5174 31.8646 17.8533L33.855 13.1049L38.4807 1.58904Z" fill="white"/>
<path d="M21.6178 28.9966C20.7147 30.5295 19.8301 31.969 18.9271 33.2963C13.4351 41.3537 8.01682 45.2421 2.85657 44.6813L2.39583 44.6252L1.41907 47.0555L-0.0184326 50.1962L3.52003 51.86L5.01282 48.6072C11.3157 47.9716 17.4712 43.0736 23.3686 34.0067C23.7556 33.4085 24.1426 32.7916 24.5296 32.156L21.6178 28.9966Z" fill="#D5D5D5"/>
<path d="M44.6178 19.1246L38.1675 21.611L34.8317 15.0118L33.8734 13.105L31.883 17.8534L32.3622 18.8068L36.2692 26.5651L46 22.8448L44.6178 19.1246Z" fill="#D5D5D5"/>
</g>
<defs>
<clipPath id="clip0_1_6">
<rect width="46" height="59" fill="white"/>
</clipPath>
</defs>
</svg>
